HIERARCHY
ROOT joint_Root
{
	OFFSET 0.0 0.0 0.0
	CHANNELS 6 Xposition Yposition Zposition Zrotation Xrotation Yrotation 
	JOINT Hips
	{
		OFFSET -17.1583 93.1646 452.98
		CHANNELS 6 Xposition Yposition Zposition Zrotation Xrotation Yrotation 
		JOINT Spine
		{
			OFFSET 15.7357 0.0 0.0
			CHANNELS 6 Xposition Yposition Zposition Zrotation Xrotation Yrotation 
			JOINT Chest
			{
				OFFSET 8.98455 -0.406207 0.0
				CHANNELS 6 Xposition Yposition Zposition Zrotation Xrotation Yrotation 
				JOINT Neck
				{
					OFFSET 16.3773 0.0 0.0
					CHANNELS 6 Xposition Yposition Zposition Zrotation Xrotation Yrotation 
					JOINT Head
					{
						OFFSET 6.45672 0.0 0.0
						CHANNELS 6 Xposition Yposition Zposition Zrotation Xrotation Yrotation 
						End Site
						{
							OFFSET 0.0 0.0 0.0
						}
					}
				}
				JOINT Shoulder_L
				{
					OFFSET 12.9942 -0.242716 4.98039
					CHANNELS 6 Xposition Yposition Zposition Zrotation Xrotation Yrotation 
					JOINT UpperArm_L
					{
						OFFSET 5.34809 0.0 0.0
						CHANNELS 6 Xposition Yposition Zposition Zrotation Xrotation Yrotation 
						JOINT LowerArm_L
						{
							OFFSET 24.3286 1.87007e-05 0.0
							CHANNELS 6 Xposition Yposition Zposition Zrotation Xrotation Yrotation 
							JOINT Hand_L
							{
								OFFSET 22.2916 0.0 0.0
								CHANNELS 6 Xposition Yposition Zposition Zrotation Xrotation Yrotation 
								End Site
								{
									OFFSET 0.0 0.0 0.0
								}
							}
						}
					}
				}
				JOINT Shoulder_R
				{
					OFFSET 12.9945 -0.242716 -4.98039
					CHANNELS 6 Xposition Yposition Zposition Zrotation Xrotation Yrotation 
					JOINT UpperArm_R
					{
						OFFSET -5.34813 0.0 0.0
						CHANNELS 6 Xposition Yposition Zposition Zrotation Xrotation Yrotation 
						JOINT LowerArm_R
						{
							OFFSET -24.3289 0.000322201 0.0
							CHANNELS 6 Xposition Yposition Zposition Zrotation Xrotation Yrotation 
							JOINT Hand_R
							{
								OFFSET -22.2915 -0.000108084 0.0
								CHANNELS 6 Xposition Yposition Zposition Zrotation Xrotation Yrotation 
								End Site
								{
									OFFSET 0.0 0.0 0.0
								}
							}
						}
					}
				}
			}
		}
		JOINT UpperLeg_L
		{
			OFFSET -2.19248 -6.46944 0.0
			CHANNELS 6 Xposition Yposition Zposition Zrotation Xrotation Yrotation 
			JOINT LowerLeg_L
			{
				OFFSET 39.0811 0.0 -1.23785e-05
				CHANNELS 6 Xposition Yposition Zposition Zrotation Xrotation Yrotation 
				JOINT Foot_L
				{
					OFFSET 40.9854 0.0 -1.26872e-05
					CHANNELS 6 Xposition Yposition Zposition Zrotation Xrotation Yrotation 
					JOINT Toes_L
					{
						OFFSET 11.7543 0.0 0.0
						CHANNELS 6 Xposition Yposition Zposition Zrotation Xrotation Yrotation 
						End Site
						{
							OFFSET 0.0 0.0 0.0
						}
					}
				}
			}
		}
		JOINT UpperLeg_R
		{
			OFFSET -2.19251 6.46944 0.0
			CHANNELS 6 Xposition Yposition Zposition Zrotation Xrotation Yrotation 
			JOINT LowerLeg_R
			{
				OFFSET -39.0811 -0.00228153 -0.0401928
				CHANNELS 6 Xposition Yposition Zposition Zrotation Xrotation Yrotation 
				JOINT Foot_R
				{
					OFFSET -40.9854 0.0 0.0
					CHANNELS 6 Xposition Yposition Zposition Zrotation Xrotation Yrotation 
					JOINT Toes_R
					{
						OFFSET -11.7543 0.0 0.0
						CHANNELS 6 Xposition Yposition Zposition Zrotation Xrotation Yrotation 
						End Site
						{
							OFFSET 0.0 0.0 0.0
						}
					}
				}
			}
		}
	}
}
MOTION
Frames:	6
Frame Time:	0.0333333
0.000000 0.000000 0.000000 0.000000 0.000000 -0.000000 187.959000 87.633500 238.644000 108.842000 -61.727300 14.689600 15.735700 0.000005 -0.000001 116.051000 85.665800 -118.980000 8.984550 -0.406207 -0.000000 0.132454 4.000920 -5.860110 16.377300 -0.000001 -0.000001 -3.251480 -6.560670 1.030440 6.456720 -0.000001 -0.000000 -1.178440 -10.611500 3.856360 12.994200 -0.242716 4.980390 -94.136800 10.898600 -69.066400 5.348090 -0.000007 -0.000001 -58.842300 -9.517890 14.158000 24.328600 0.000019 0.000005 1.864820 24.961500 -4.412020 22.291600 -0.000001 0.000005 1.785160 4.633070 14.337800 12.994500 -0.242716 -4.980390 89.063000 3.235650 -73.837300 -5.348130 -0.000001 -0.000004 -76.870100 15.272800 -11.648600 -24.328900 0.000322 -0.000009 -6.223080 -10.639000 -30.584700 -22.291500 -0.000108 -0.000004 12.083400 5.521820 -7.493980 -2.192480 -6.469440 -0.000000 177.692000 1.037130 -27.577300 39.081100 -0.000007 -0.000012 0.469118 -0.554921 40.211400 40.985400 -0.000006 -0.000013 -3.039340 11.876000 -70.525300 11.754300 -0.000000 0.000003 0.002284 0.107778 -12.206100 -2.192510 6.469440 -0.000001 168.998000 -3.425640 178.543000 -39.081100 -0.002282 -0.040193 0.156222 -0.114724 53.134100 -40.985400 0.000008 0.000006 3.644310 6.405800 -35.040300 -11.754300 -0.000006 -0.000006 -0.030204 -0.218399 -25.520900
0.000000 0.000000 0.000000 0.000000 0.000000 -0.000000 184.730000 87.753100 241.413000 112.619000 -65.082500 19.880800 15.735700 0.000005 -0.000001 112.671000 85.206400 -116.089000 8.984550 -0.406207 -0.000000 1.208910 3.889060 -6.874060 16.377300 -0.000001 -0.000001 -3.752120 -4.975120 0.609638 6.456720 -0.000001 -0.000000 -0.273804 -8.910370 7.294170 12.994200 -0.242716 4.980390 -94.082100 10.900400 -69.323800 5.348090 -0.000007 -0.000001 -58.601300 -7.674040 7.331950 24.328600 0.000019 0.000005 2.801060 25.161900 -6.563430 22.291600 -0.000001 0.000005 4.633780 4.628980 14.415100 12.994500 -0.242716 -4.980390 88.807400 4.369430 -74.716400 -5.348130 -0.000001 -0.000004 -77.046400 16.382100 -8.864650 -24.328900 0.000322 -0.000009 -3.198950 -9.813120 -18.094100 -22.291500 -0.000108 -0.000004 10.599700 5.352700 -1.338960 -2.192480 -6.469440 -0.000000 176.172000 -5.349380 -22.927500 39.081100 -0.000007 -0.000012 0.566503 -0.655564 40.833200 40.985400 -0.000006 -0.000013 -0.648292 14.233700 -73.677000 11.754300 -0.000000 0.000003 0.001631 0.133012 -11.182800 -2.192510 6.469440 -0.000001 167.649000 -4.058410 172.361000 -39.081100 -0.002282 -0.040193 0.376772 -0.201182 61.697000 -40.985400 0.000008 0.000006 0.650181 -2.995510 -26.497800 -11.754300 -0.000006 -0.000006 0.002312 0.106151 -12.268600
0.000000 0.000000 0.000000 0.000000 0.000000 -0.000000 181.402000 88.702700 243.620000 114.062000 -67.712000 22.110200 15.735700 0.000005 -0.000001 107.386000 85.414300 -110.689000 8.984550 -0.406207 -0.000000 1.081120 2.931810 -6.628200 16.377300 -0.000001 -0.000001 -3.652990 -3.517360 -0.421013 6.456720 -0.000001 -0.000000 1.401920 -6.954230 8.888720 12.994200 -0.242716 4.980390 -93.855100 10.496300 -69.700600 5.348090 -0.000007 -0.000001 -57.913200 -6.327470 1.414900 24.328600 0.000019 0.000005 4.403490 25.560200 -10.120100 22.291600 -0.000001 0.000005 5.541690 4.689150 13.351900 12.994500 -0.242716 -4.980390 88.810700 4.542460 -75.311000 -5.348130 -0.000001 -0.000004 -77.344300 14.614200 -4.776670 -24.328900 0.000322 -0.000009 -0.103217 -0.687205 -7.492700 -22.291500 -0.000108 -0.000004 3.694220 5.127750 4.548610 -2.192480 -6.469440 -0.000000 176.416000 -9.311840 -17.064800 39.081100 -0.000007 -0.000012 0.514713 -0.680060 37.122100 40.985400 -0.000006 -0.000013 0.364481 15.294900 -75.122100 11.754300 -0.000000 0.000003 0.001138 0.145551 -10.674100 -2.192510 6.469440 -0.000001 168.589000 -2.719210 167.138000 -39.081100 -0.002282 -0.040193 0.369915 -0.151969 67.494000 -40.985400 0.000008 0.000006 2.969000 -11.547500 -32.121700 -11.754300 -0.000006 -0.000006 0.002296 0.107131 -12.228800
0.000000 0.000000 0.000000 0.000000 0.000000 -0.000000 177.984000 89.974300 245.241000 110.548000 -69.090400 19.401800 15.735700 0.000005 -0.000001 96.114400 85.885000 -98.577700 8.984550 -0.406207 -0.000000 0.444203 1.033620 -4.927240 16.377300 -0.000001 -0.000001 -2.873290 -2.521250 -1.080720 6.456720 -0.000001 -0.000000 2.962410 -4.955900 8.052960 12.994200 -0.242716 4.980390 -93.445700 9.636750 -70.217300 5.348090 -0.000007 -0.000001 -57.305100 -6.000130 -3.007470 24.328600 0.000019 0.000005 6.536690 23.870500 -15.816700 22.291600 -0.000001 0.000005 5.110410 4.772610 11.828500 12.994500 -0.242716 -4.980390 89.060400 3.545040 -75.144700 -5.348130 -0.000001 -0.000004 -76.471200 9.543520 0.179878 -24.328900 0.000322 -0.000009 0.052157 13.014100 -0.269635 -22.291500 -0.000108 -0.000004 -0.784755 5.019310 6.914970 -2.192480 -6.469440 -0.000000 178.838000 -10.003400 -10.583700 39.081100 -0.000007 -0.000012 0.233593 -0.390330 30.898600 40.985400 -0.000006 -0.000013 -2.548840 16.341000 -73.369600 11.754300 -0.000000 0.000003 0.001697 0.131060 -11.262000 -2.192510 6.469440 -0.000001 171.879000 0.147254 163.026000 -39.081100 -0.002282 -0.040193 0.302308 -0.112721 69.355900 -40.985400 0.000008 0.000006 3.522890 -15.853200 -38.269200 -11.754300 -0.000006 -0.000006 0.002155 0.114515 -11.929500
0.000000 0.000000 0.000000 0.000000 0.000000 -0.000000 174.744000 91.236900 246.479000 104.936000 -69.557600 13.950200 15.735700 0.000005 -0.000001 79.740500 86.281000 -81.208000 8.984550 -0.406207 -0.000000 -0.460800 -1.219150 -2.938370 16.377300 -0.000001 -0.000001 -1.964050 -1.631830 -1.525700 6.456720 -0.000001 -0.000000 4.144800 -3.532500 6.926830 12.994200 -0.242716 4.980390 -92.931900 8.471270 -70.829400 5.348090 -0.000007 -0.000001 -56.368600 -5.367840 -6.443480 24.328600 0.000019 0.000005 8.050710 19.388500 -23.087200 22.291600 -0.000001 0.000005 4.599070 4.840560 10.540600 12.994500 -0.242716 -4.980390 89.346800 2.367690 -74.570300 -5.348130 -0.000001 -0.000004 -73.639900 6.694990 5.596420 -24.328900 0.000322 -0.000009 -0.001208 18.996800 0.000086 -22.291500 -0.000108 -0.000004 -0.727063 4.939050 8.583230 -2.192480 -6.469440 -0.000000 -177.566000 -9.822600 -4.561920 39.081100 -0.000007 -0.000012 -0.072168 0.174591 22.458000 40.985400 -0.000006 -0.000013 -13.306900 18.478000 -64.901500 11.754300 -0.000000 0.000003 0.009285 0.102392 -12.808000 -2.192510 6.469440 -0.000001 176.017000 3.127770 159.232000 -39.081100 -0.002282 -0.040193 0.234068 -0.092949 68.075600 -40.985400 0.000008 0.000006 2.750630 -14.750000 -44.487900 -11.754300 -0.000006 -0.000006 0.002005 0.120794 -11.674800
0.000000 0.000000 0.000000 0.000000 0.000000 -0.000000 171.767000 92.309000 247.661000 101.137000 -69.990600 9.684620 15.735700 0.000005 -0.000001 64.596300 86.385000 -65.363400 8.984550 -0.406207 -0.000000 -1.255350 -3.040560 -1.567100 16.377300 -0.000001 -0.000001 -1.512360 -1.160500 -2.058550 6.456720 -0.000001 -0.000000 5.075800 -2.167630 6.562110 12.994200 -0.242716 4.980390 -92.515200 7.634470 -71.704200 5.348090 -0.000007 -0.000001 -54.377100 -5.896420 -9.710110 24.328600 0.000019 0.000005 9.451190 16.128500 -30.937100 22.291600 -0.000001 0.000005 4.278300 4.901760 9.342580 12.994500 -0.242716 -4.980390 89.526500 1.652010 -74.004200 -5.348130 -0.000001 -0.000004 -69.424400 4.356140 11.334100 -24.328900 0.000322 -0.000009 -0.001392 19.086700 0.000086 -22.291500 -0.000108 -0.000004 1.391660 4.900670 9.365440 -2.192480 -6.469440 -0.000000 -175.971000 -10.636400 -1.576480 39.081100 -0.000007 -0.000012 -0.046506 0.137395 18.700000 40.985400 -0.000006 -0.000013 -13.804800 18.706700 -60.726700 11.754300 -0.000000 0.000003 0.001935 0.044291 -14.780100 -2.192510 6.469440 -0.000001 179.298000 4.931620 155.565000 -39.081100 -0.002282 -0.040193 0.182670 -0.085676 64.484800 -40.985400 0.000008 0.000006 0.559395 -10.459300 -51.176600 -11.754300 -0.000006 -0.000006 0.002060 0.118620 -11.763000
